<?xml version="1.0" encoding="UTF-8"?>
<svg width="26px" height="26px" viewBox="0 0 26 26" version="1.1" xmlns="http://www.w3.org/2000/svg" xmlns:xlink="http://www.w3.org/1999/xlink">
    <!-- Generator: Sketch 61.2 (89653) - https://sketch.com -->
    <title>Group</title>
    <desc>Created with Sketch.</desc>
    <g id="Symbols" stroke="none" stroke-width="1" fill="none" fill-rule="evenodd">
        <g id="Module-/-Footer---S" transform="translate(-38.000000, -497.000000)" fill="#FFFFFF" fill-rule="nonzero">
            <g id="Group" transform="translate(38.000000, 497.000000)">
                <path d="M12.9003151,2.32443277 C16.3448713,2.32443277 16.7528454,2.33754202 18.1131341,2.3996061 C19.3709047,2.45701024 20.053968,2.6671678 20.5085924,2.84378414 C21.1106959,3.07780463 21.5404844,3.3574002 21.9918828,3.80879858 C22.4432812,4.26019695 22.7228768,4.68998555 22.9568461,5.29208902 C23.1335137,5.74671349 23.3436712,6.42977679 23.4010754,7.68749606 C23.4631395,9.04783614 23.4762486,9.45581014 23.4762486,12.9003663 C23.4762486,16.3449225 23.4631395,16.7528966 23.4010754,18.1131853 C23.3436712,19.3709559 23.1335137,20.0540192 22.9568461,20.5086436 C22.7228768,21.1107471 22.4432812,21.5405356 21.9918828,21.991934 C21.5404844,22.4433324 21.1106959,22.7229281 20.5085924,22.9568974 C20.053968,23.1335649 19.3709047,23.3437224 18.1131341,23.4011266 C16.7530501,23.4631907 16.3450761,23.4762998 12.9003151,23.4762998 C9.4555541,23.4762998 9.0475801,23.4631907 7.68749606,23.4011266 C6.42972558,23.3437224 5.74666228,23.1335649 5.29208903,22.9568974 C4.68993435,22.7229281 4.26014574,22.4433324 3.80874737,21.991934 C3.357349,21.5405356 3.07775342,21.1107471 2.84378414,20.5086436 C2.6671166,20.0540192 2.45695903,19.3709559 2.39955489,18.1132366 C2.33749081,16.7528966 2.32438157,16.3449225 2.32438157,12.9003663 C2.32438157,9.45581014 2.33749081,9.04783614 2.39955489,7.68754726 C2.45695903,6.42977679 2.6671166,5.74671349 2.84378414,5.29208902 C3.07775342,4.68998555 3.357349,4.26019695 3.80874737,3.80879858 C4.26014574,3.3574002 4.68993435,3.07780463 5.29208903,2.84378414 C5.74666228,2.6671678 6.42972558,2.45701024 7.68744485,2.3996061 C9.04778493,2.33754202 9.45575893,2.32443277 12.9003151,2.32443277 M12.9003151,0 C9.39676733,0 8.95750525,0.0148503151 7.58154674,0.0776313026 C6.20840467,0.140309874 5.27068408,0.358353466 4.45007616,0.677276786 C3.6017647,1.00695378 2.88234375,1.44805935 2.16517594,2.16522715 C1.44800814,2.88239495 1.00690257,3.60181591 0.677225578,4.45012737 C0.358302258,5.27073529 0.140258666,6.20845588 0.0775800946,7.58159795 C0.0147991071,8.95750526 0,9.39681854 0,12.9003663 C0,16.4039141 0.0147991071,16.8432275 0.0775800946,18.2191348 C0.140258666,19.5922768 0.358302258,20.5299974 0.677225578,21.3506053 C1.00690257,22.1988655 1.44800814,22.9183377 2.16517594,23.6355055 C2.88234375,24.3526733 3.6017647,24.7937788 4.45007616,25.1234558 C5.27068408,25.4423792 6.20840467,25.6604228 7.58154674,25.7231014 C8.95750525,25.7858824 9.39676733,25.8006814 12.9003151,25.8006814 C16.4038629,25.8006814 16.8431763,25.7858824 18.2190836,25.7231014 C19.5922256,25.6604228 20.5299462,25.4423792 21.350554,25.1234558 C22.1988656,24.7937788 22.9182865,24.3526733 23.6354543,23.6355055 C24.3526221,22.9183377 24.7937276,22.1989168 25.1234046,21.3506053 C25.442328,20.5299974 25.6603715,19.5922768 25.7230501,18.2191348 C25.7858312,16.8432275 25.8006815,16.4039141 25.8006815,12.9003663 C25.8006815,9.39681854 25.7858312,8.95750526 25.7230501,7.58159795 C25.6603715,6.20845588 25.442328,5.27073529 25.1234046,4.45012737 C24.7937276,3.60181591 24.3526221,2.88239495 23.6354543,2.16522715 C22.9182865,1.44805935 22.1988656,1.00695378 21.350554,0.677276786 C20.5299462,0.358353466 19.5922256,0.140309874 18.2190836,0.0776313026 C16.8431763,0.0148503151 16.4038629,0 12.9003151,0" id="Fill-1"></path>
                <path d="M13.6245207,7 C9.96591517,7 7,9.96591517 7,13.6245207 C7,17.2831264 9.96591517,20.2490414 13.6245207,20.2490414 C17.2831264,20.2490414 20.2490414,17.2831264 20.2490414,13.6245207 C20.2490414,9.96591517 17.2831264,7 13.6245207,7 L13.6245207,7 Z M13.6245207,17.9246599 C11.2496481,17.9246599 9.32438156,15.9993934 9.32438156,13.6245207 C9.32438156,11.2496481 11.2496481,9.32438156 13.6245207,9.32438156 C15.9993934,9.32438156 17.9246599,11.2496481 17.9246599,13.6245207 C17.9246599,15.9993934 15.9993934,17.9246599 13.6245207,17.9246599 L13.6245207,17.9246599 Z" id="Fill-2"></path>
                <path d="M21.0960859,6.54801733 C21.0960859,7.40298582 20.403037,8.09608587 19.5480685,8.09608587 C18.6931,8.09608587 18,7.40298582 18,6.54801733 C18,5.69304885 18.6931,5 19.5480685,5 C20.403037,5 21.0960859,5.69304885 21.0960859,6.54801733" id="Fill-3"></path>
            </g>
        </g>
    </g>
</svg>