<?xml version="1.0" encoding="utf-8"?>
<!-- Generator: Adobe Illustrator 15.0.0, SVG Export Plug-In . SVG Version: 6.00 Build 0)  -->
<!DOCTYPE svg PUBLIC "-//W3C//DTD SVG 1.1//EN" "http://www.w3.org/Graphics/SVG/1.1/DTD/svg11.dtd">
<svg version="1.1" id="Layer_1" xmlns="http://www.w3.org/2000/svg" xmlns:xlink="http://www.w3.org/1999/xlink" x="0px" y="0px"
	 width="14px" height="14px" viewBox="0 0 14 14" enable-background="new 0 0 14 14" xml:space="preserve">
<path fill="#050505" d="M13.229,0H0.772C0.346,0,0,0.346,0,0.773v12.456C0,13.652,0.346,14,0.772,14h6.705V8.58H5.654V6.466h1.823
	V4.908c0-1.808,1.106-2.793,2.716-2.793c0.774,0,1.438,0.057,1.632,0.083v1.89h-1.119c-0.875,0-1.046,0.417-1.046,1.029v1.349h2.092
	L11.48,8.58H9.66V14h3.566C13.654,14,14,13.652,14,13.229V0.773C14,0.347,13.654,0,13.229,0"/>
</svg>
