<?xml version="1.0" encoding="utf-8"?>
<!-- Generator: Adobe Illustrator 15.0.0, SVG Export Plug-In . SVG Version: 6.00 Build 0)  -->
<!DOCTYPE svg PUBLIC "-//W3C//DTD SVG 1.1//EN" "http://www.w3.org/Graphics/SVG/1.1/DTD/svg11.dtd">
<svg version="1.1" id="Layer_1" xmlns="http://www.w3.org/2000/svg" xmlns:xlink="http://www.w3.org/1999/xlink" x="0px" y="0px"
	 width="16.003px" height="16px" viewBox="0 0 16.003 16" enable-background="new 0 0 16.003 16" xml:space="preserve">
<path d="M14.156,6.768h-1.395C12.865,7.164,12.923,7.574,12.923,8c0,2.718-2.204,4.923-4.923,4.923
	c-2.721,0-4.926-2.205-4.926-4.923c0-0.427,0.062-0.837,0.162-1.232H1.843v6.771c0,0.34,0.276,0.615,0.617,0.615h11.073
	c0.342,0,0.617-0.275,0.617-0.615V6.768H14.156z M14.156,2.461c0-0.339-0.275-0.615-0.615-0.615h-1.846
	c-0.34,0-0.615,0.276-0.615,0.615v1.846c0,0.341,0.275,0.616,0.615,0.616h1.846c0.34,0,0.615-0.275,0.615-0.616V2.461z M8.003,4.923
	C6.303,4.923,4.926,6.3,4.926,8c0,1.699,1.377,3.078,3.077,3.078S11.08,9.699,11.08,8C11.08,6.3,9.703,4.923,8.003,4.923 M14.156,16
	H1.846C0.826,16,0,15.173,0,14.152V1.846C0,0.826,0.826,0,1.846,0h12.312c1.021,0,1.846,0.826,1.846,1.846v12.308
	C16.003,15.173,15.177,16,14.156,16"/>
</svg>
