<?xml version="1.0" encoding="utf-8"?>
<!-- Generator: Adobe Illustrator 15.0.0, SVG Export Plug-In . SVG Version: 6.00 Build 0)  -->
<!DOCTYPE svg PUBLIC "-//W3C//DTD SVG 1.1//EN" "http://www.w3.org/Graphics/SVG/1.1/DTD/svg11.dtd">
<svg version="1.1" id="Layer_1" xmlns="http://www.w3.org/2000/svg" xmlns:xlink="http://www.w3.org/1999/xlink" x="0px" y="0px"
	 width="16px" height="13px" viewBox="0 0 16 13" enable-background="new 0 0 16 13" xml:space="preserve">
<path id="Shape" d="M16,1.528c-0.589,0.259-1.221,0.436-1.885,0.514c0.678-0.403,1.197-1.043,1.443-1.804
	c-0.637,0.374-1.338,0.645-2.086,0.792C12.873,0.396,12.021,0,11.076,0C9.264,0,7.794,1.461,7.794,3.262
	c0,0.255,0.029,0.504,0.085,0.743C5.152,3.869,2.733,2.57,1.115,0.596c-0.283,0.481-0.444,1.042-0.444,1.64
	c0,1.132,0.58,2.131,1.459,2.715C1.593,4.933,1.087,4.786,0.644,4.542v0.041c0,1.58,1.132,2.898,2.632,3.199
	C3.001,7.854,2.711,7.896,2.412,7.896c-0.212,0-0.417-0.021-0.618-0.062c0.418,1.297,1.63,2.24,3.065,2.267
	c-1.123,0.874-2.539,1.394-4.076,1.394c-0.265,0-0.526-0.016-0.783-0.045c1.453,0.928,3.177,1.469,5.031,1.469
	c6.037,0,9.338-4.971,9.338-9.282l-0.011-0.422C15.003,2.757,15.561,2.182,16,1.528L16,1.528z"/>
</svg>
