<?xml version="1.0" encoding="UTF-8"?>
<svg width="25px" height="25px" viewBox="0 0 25 25" version="1.1" xmlns="http://www.w3.org/2000/svg" xmlns:xlink="http://www.w3.org/1999/xlink">
    <!-- Generator: Sketch 61.2 (89653) - https://sketch.com -->
    <title>Fill-10</title>
    <desc>Created with Sketch.</desc>
    <g id="Symbols" stroke="none" stroke-width="1" fill="none" fill-rule="evenodd">
        <g id="Module-/-Footer---S" transform="translate(-108.000000, -498.000000)" fill="#FFFFFF" fill-rule="nonzero">
            <path d="M133,523 L127.822576,523 L127.822576,514.879289 C127.822576,512.941875 127.786916,510.451158 125.13016,510.451158 C122.433863,510.451158 122.020988,512.560856 122.020988,514.73908 L122.020988,523 L116.843564,523 L116.843564,506.301015 L121.813823,506.301015 L121.813823,508.582512 L121.882717,508.582512 C122.574075,507.269843 124.264385,505.88549 126.784811,505.88549 C132.031371,505.88549 133,509.344064 133,513.840234 L133,523 Z M113.593937,506.301015 L113.593937,523 L108.412874,523 L108.412874,506.301015 L113.593937,506.301015 Z M111.004376,498 C112.66121,498 114.007054,499.348389 114.007054,501.008301 C114.007054,502.669427 112.66121,504.018302 111.004376,504.018302 C109.344146,504.018302 108,502.669427 108,501.008301 C108,499.348389 109.344146,498 111.004376,498 Z" id="Fill-10"></path>
        </g>
    </g>
</svg>