<?xml version="1.0" encoding="UTF-8"?>
<svg width="25px" height="20px" viewBox="0 0 25 20" version="1.1" xmlns="http://www.w3.org/2000/svg" xmlns:xlink="http://www.w3.org/1999/xlink">
    <!-- Generator: Sketch 61.2 (89653) - https://sketch.com -->
    <title>Shape</title>
    <desc>Created with Sketch.</desc>
    <g id="Symbols" stroke="none" stroke-width="1" fill="none" fill-rule="evenodd">
        <g id="Module-/-Footer---S" transform="translate(-178.000000, -500.000000)" fill="#FFFFFF" fill-rule="nonzero">
            <path d="M200.416974,505.067873 C200.416974,505.248869 200.416974,505.520362 200.416974,505.701357 C200.416974,512.307692 195.250923,520 185.841328,520 C182.98155,520 180.214022,519.18552 178,517.737557 C178.369004,517.828054 178.830258,517.828054 179.199262,517.828054 C181.597786,517.828054 183.811808,517.013575 185.564576,515.656109 C183.350554,515.656109 181.413284,514.117647 180.767528,512.126697 C181.04428,512.217195 181.413284,512.217195 181.690037,512.217195 C182.151292,512.217195 182.612546,512.126697 183.073801,512.036199 C180.767528,511.58371 178.922509,509.502262 178.922509,507.149321 C178.922509,507.149321 178.922509,507.149321 178.922509,507.058824 C179.568266,507.420814 180.398524,507.692308 181.228782,507.692308 C179.845018,506.78733 178.922509,505.248869 178.922509,503.529412 C178.922509,502.624434 179.199262,501.719457 179.660517,500.995475 C182.151292,504.072398 185.933579,506.063348 190.177122,506.244344 C190.084871,505.882353 190.084871,505.520362 190.084871,505.067873 C190.084871,502.262443 192.391144,500 195.250923,500 C196.726937,500 198.01845,500.633484 199.03321,501.628959 C200.232472,501.447964 201.339483,500.995475 202.261993,500.452489 C201.892989,501.628959 201.062731,502.624434 200.04797,503.257919 C201.062731,503.167421 202.077491,502.895928 203,502.443439 C202.261993,503.438914 201.339483,504.343891 200.416974,505.067873 Z" id="Shape"></path>
        </g>
    </g>
</svg>